<?xml version="1.0" standalone="no"?>
<!DOCTYPE svg PUBLIC "-//W3C//DTD SVG 20010904//EN"
 "http://www.w3.org/TR/2001/REC-SVG-20010904/DTD/svg10.dtd">
<svg version="1.0" xmlns="http://www.w3.org/2000/svg"
 width="700.000000pt" height="700.000000pt" viewBox="0 0 700.000000 700.000000"
 preserveAspectRatio="xMidYMid meet">
<metadata>
Created by potrace 1.14, written by Peter Selinger 2001-2017
</metadata>
<g transform="translate(0.000000,700.000000) scale(0.100000,-0.100000)"
fill="#000000" stroke="none">
<path d="M2877 6364 c-1 -1 -49 -4 -107 -8 -119 -8 -140 -10 -259 -31 -86 -15
-274 -61 -321 -77 -8 -3 -44 -16 -80 -28 -175 -60 -384 -164 -560 -281 -456
-302 -814 -771 -981 -1284 -48 -145 -92 -332 -104 -435 -3 -25 -7 -58 -10 -75
-16 -106 -21 -353 -10 -485 41 -466 205 -911 468 -1268 l44 -60 2 -343 c4
-631 3 -619 33 -670 15 -25 46 -59 69 -75 37 -25 51 -29 113 -28 39 0 80 3 91
6 11 4 164 52 340 108 176 55 362 114 414 131 l94 29 91 -29 c97 -30 233 -64
331 -80 61 -11 89 -14 205 -26 58 -6 75 -14 163 -72 119 -78 288 -167 417
-218 98 -39 286 -99 336 -109 16 -2 64 -12 108 -20 355 -71 761 -51 1119 55
l68 20 312 -101 c172 -56 373 -122 447 -146 75 -24 155 -44 178 -44 81 0 154
47 195 125 20 39 21 53 22 525 l1 485 68 100 c61 91 182 319 214 405 59 156
105 308 128 425 91 459 49 906 -124 1345 -255 646 -803 1157 -1467 1369 l-101
32 -105 102 c-116 113 -128 124 -243 212 -283 218 -611 374 -957 454 -46 11
-102 22 -124 26 -22 3 -53 8 -70 10 -16 3 -43 7 -59 10 -68 10 -380 26 -389
19z m353 -508 c103 -19 243 -50 300 -68 399 -122 768 -375 1011 -693 38 -49
73 -94 77 -100 27 -35 120 -200 158 -281 137 -292 194 -562 189 -889 -3 -199
-5 -218 -40 -388 -148 -721 -708 -1319 -1425 -1521 -98 -27 -106 -29 -200 -46
-160 -28 -426 -42 -520 -26 -14 3 -52 7 -85 11 -151 15 -350 66 -506 130 l-62
25 -116 -36 c-64 -20 -134 -42 -156 -49 -22 -8 -94 -31 -160 -51 -66 -20 -147
-45 -179 -55 -33 -10 -61 -17 -63 -15 -2 1 -5 162 -7 355 l-3 352 -30 32
c-204 221 -396 623 -449 937 -2 14 -6 34 -8 45 -28 130 -28 521 0 656 2 13 7
40 10 59 3 19 10 53 16 75 5 22 11 47 13 55 23 111 140 387 222 524 104 175
285 383 448 516 296 241 677 405 1035 445 30 3 56 8 59 11 6 6 429 -3 471 -10z
m2160 -1163 c304 -247 543 -628 629 -1008 20 -88 22 -98 36 -195 13 -89 14
-414 2 -465 -3 -11 -8 -42 -11 -70 -11 -76 -52 -234 -90 -338 -64 -177 -174
-372 -294 -521 l-56 -69 3 -357 2 -357 -336 113 c-312 105 -339 112 -363 100
-90 -46 -371 -117 -522 -132 -76 -7 -322 -8 -365 0 -16 2 -55 8 -85 11 -59 7
-232 43 -239 50 -2 3 2 7 10 9 8 3 41 14 74 25 134 45 320 131 450 210 37 23
69 41 71 41 3 0 10 5 17 10 7 6 48 36 92 67 446 317 787 795 943 1325 36 120
78 322 87 423 4 39 9 88 11 110 5 56 5 322 -1 365 -2 19 -6 60 -10 90 -5 54
-29 201 -40 250 -3 14 -7 34 -9 45 -12 58 -77 268 -103 335 -7 18 -10 19 97
-67z"/>
<path d="M1883 4096 c-189 -92 -214 -344 -46 -466 139 -101 325 -55 404 100
33 63 33 176 1 238 -33 62 -95 118 -152 137 -63 21 -153 17 -207 -9z"/>
<path d="M2845 4097 c-214 -104 -220 -392 -9 -492 266 -126 508 188 324 419
-48 60 -106 88 -194 93 -60 3 -79 0 -121 -20z"/>
<path d="M3810 4103 c-178 -76 -227 -292 -100 -437 89 -101 252 -118 360 -38
46 35 57 48 86 108 60 125 13 272 -110 349 -42 25 -59 30 -125 31 -49 1 -89
-3 -111 -13z"/>
</g>
</svg>
